<svg width="25" height="17" viewBox="0 0 25 17" fill="none" xmlns="http://www.w3.org/2000/svg">
<path d="M7.84012 7.43432L7.28831 8.79636L7.08321 9.30682L7.45922 9.70841L8.71423 11.0511L8.00127 11.7817L7.49341 12.3018L7.91825 12.8897L8.05987 13.0857L1.8996 14.0655L1.00352 8.52056L7.84012 7.43432ZM8.42123 6.46421L0 7.80205L1.17443 15.0574L9.59566 13.7195L8.62877 12.3841L9.91796 11.0632L8.10138 9.12053L8.90712 7.13192L8.42123 6.46421ZM13.5072 7.74641L23.9306 10.514L22.4631 15.938L11.295 12.972L11.2169 12.597L12.2595 12.1833L13.0286 11.8785L12.7625 11.1019L12.0837 9.10844L13.241 8.00043L13.5072 7.74641ZM12.467 6.57308L12.6331 7.37868L11.0777 8.86893L11.9348 11.3777L10.2134 12.0623L10.5455 13.6711L23.0809 17L25 9.90195L12.467 6.57308ZM5.71584 3.2517L6.41469 2.54151L8.07376 4.14426L7.37491 4.85445L5.71584 3.2517ZM13.0226 4.80045L14.6402 3.15662L15.357 3.84906L13.7394 5.49288L13.0226 4.80045ZM10.0523 0H11.0533V3.59983H10.0523V0Z" fill="#303030"/>
</svg>
